<mxfile host="app.diagrams.net" modified="2022-05-25T06:43:57.419Z" agent="5.0 (Windows NT 10.0; Win64; x64) AppleWebKit/537.36 (KHTML, like Gecko) Chrome/101.0.4951.67 Safari/537.36" etag="ZtWKMvcnUgiZMqbiwd-9" version="17.4.0" type="github">
  <diagram name="Page-1" id="b5b7bab2-c9e2-2cf4-8b2a-24fd1a2a6d21">
    <mxGraphModel dx="1778" dy="921" grid="1" gridSize="10" guides="1" tooltips="1" connect="1" arrows="1" fold="1" page="1" pageScale="1" pageWidth="827" pageHeight="1169" background="none" math="0" shadow="0">
      <root>
        <mxCell id="0" />
        <mxCell id="1" parent="0" />
        <mxCell id="6e0c8c40b5770093-72" value="" style="shape=folder;fontStyle=1;spacingTop=10;tabWidth=194;tabHeight=22;tabPosition=left;html=1;rounded=0;shadow=0;comic=0;labelBackgroundColor=none;strokeWidth=1;fillColor=none;fontFamily=Verdana;fontSize=10;align=center;" parent="1" vertex="1">
          <mxGeometry x="200" y="114.5" width="1121" height="940" as="geometry" />
        </mxCell>
        <mxCell id="6e0c8c40b5770093-58" style="rounded=0;html=1;dashed=1;labelBackgroundColor=none;startFill=0;endArrow=open;endFill=0;endSize=10;fontFamily=Verdana;fontSize=10;entryX=0.592;entryY=0.2;entryPerimeter=0;edgeStyle=elbowEdgeStyle;" parent="1" target="6e0c8c40b5770093-11" edge="1">
          <mxGeometry relative="1" as="geometry">
            <mxPoint x="527" y="244.5" as="sourcePoint" />
          </mxGeometry>
        </mxCell>
        <mxCell id="6e0c8c40b5770093-73" value="DR.dk CMS Context diagram" style="text;html=1;align=left;verticalAlign=top;spacingTop=-4;fontSize=10;fontFamily=Verdana" parent="1" vertex="1">
          <mxGeometry x="240" y="114.5" width="130" height="20" as="geometry" />
        </mxCell>
        <mxCell id="4k3_10itk6TQqzx8U7jZ-1" value="&lt;p style=&quot;margin: 0px ; margin-top: 6px ; text-align: center&quot;&gt;&lt;b&gt;DR.dk CMS Tender Scope&lt;/b&gt;&lt;/p&gt;&lt;hr&gt;&lt;p style=&quot;margin: 0px ; margin-left: 8px&quot;&gt;&lt;br&gt;&lt;/p&gt;" style="align=left;overflow=fill;html=1;dropTarget=0;" vertex="1" parent="1">
          <mxGeometry x="435" y="500" width="790" height="330" as="geometry" />
        </mxCell>
        <mxCell id="4k3_10itk6TQqzx8U7jZ-2" value="" style="shape=component;jettyWidth=8;jettyHeight=4;" vertex="1" parent="4k3_10itk6TQqzx8U7jZ-1">
          <mxGeometry x="1" width="20" height="20" relative="1" as="geometry">
            <mxPoint x="-24" y="4" as="offset" />
          </mxGeometry>
        </mxCell>
        <mxCell id="4k3_10itk6TQqzx8U7jZ-3" value="&amp;laquo;Annotation&amp;raquo;&lt;br/&gt;&lt;b&gt;Component&lt;/b&gt;" style="html=1;dropTarget=0;" vertex="1" parent="1">
          <mxGeometry x="490" y="540" width="180" height="90" as="geometry" />
        </mxCell>
        <mxCell id="4k3_10itk6TQqzx8U7jZ-4" value="" style="shape=module;jettyWidth=8;jettyHeight=4;" vertex="1" parent="4k3_10itk6TQqzx8U7jZ-3">
          <mxGeometry x="1" width="20" height="20" relative="1" as="geometry">
            <mxPoint x="-27" y="7" as="offset" />
          </mxGeometry>
        </mxCell>
        <mxCell id="4k3_10itk6TQqzx8U7jZ-6" value="CAS&lt;br&gt;Content Aggregation Service" style="html=1;dropTarget=0;" vertex="1" parent="1">
          <mxGeometry x="740" y="350" width="180" height="90" as="geometry" />
        </mxCell>
        <mxCell id="4k3_10itk6TQqzx8U7jZ-7" value="" style="shape=module;jettyWidth=8;jettyHeight=4;" vertex="1" parent="4k3_10itk6TQqzx8U7jZ-6">
          <mxGeometry x="1" width="20" height="20" relative="1" as="geometry">
            <mxPoint x="-27" y="7" as="offset" />
          </mxGeometry>
        </mxCell>
        <mxCell id="4k3_10itk6TQqzx8U7jZ-8" value="DR Billeder&lt;br&gt;Canto Cumulus" style="html=1;dropTarget=0;" vertex="1" parent="1">
          <mxGeometry x="440" y="907" width="180" height="90" as="geometry" />
        </mxCell>
        <mxCell id="4k3_10itk6TQqzx8U7jZ-9" value="" style="shape=module;jettyWidth=8;jettyHeight=4;" vertex="1" parent="4k3_10itk6TQqzx8U7jZ-8">
          <mxGeometry x="1" width="20" height="20" relative="1" as="geometry">
            <mxPoint x="-27" y="7" as="offset" />
          </mxGeometry>
        </mxCell>
        <mxCell id="4k3_10itk6TQqzx8U7jZ-10" value="Ritzau Scanpix" style="html=1;dropTarget=0;" vertex="1" parent="1">
          <mxGeometry x="640" y="907" width="180" height="90" as="geometry" />
        </mxCell>
        <mxCell id="4k3_10itk6TQqzx8U7jZ-11" value="" style="shape=module;jettyWidth=8;jettyHeight=4;" vertex="1" parent="4k3_10itk6TQqzx8U7jZ-10">
          <mxGeometry x="1" width="20" height="20" relative="1" as="geometry">
            <mxPoint x="-27" y="7" as="offset" />
          </mxGeometry>
        </mxCell>
        <mxCell id="4k3_10itk6TQqzx8U7jZ-12" value="OD Cache / OD Clip" style="html=1;dropTarget=0;" vertex="1" parent="1">
          <mxGeometry x="840" y="907" width="180" height="90" as="geometry" />
        </mxCell>
        <mxCell id="4k3_10itk6TQqzx8U7jZ-13" value="" style="shape=module;jettyWidth=8;jettyHeight=4;" vertex="1" parent="4k3_10itk6TQqzx8U7jZ-12">
          <mxGeometry x="1" width="20" height="20" relative="1" as="geometry">
            <mxPoint x="-27" y="7" as="offset" />
          </mxGeometry>
        </mxCell>
        <mxCell id="4k3_10itk6TQqzx8U7jZ-14" value="Midas" style="html=1;dropTarget=0;" vertex="1" parent="1">
          <mxGeometry x="1040" y="907" width="180" height="90" as="geometry" />
        </mxCell>
        <mxCell id="4k3_10itk6TQqzx8U7jZ-15" value="" style="shape=module;jettyWidth=8;jettyHeight=4;" vertex="1" parent="4k3_10itk6TQqzx8U7jZ-14">
          <mxGeometry x="1" width="20" height="20" relative="1" as="geometry">
            <mxPoint x="-27" y="7" as="offset" />
          </mxGeometry>
        </mxCell>
        <mxCell id="4k3_10itk6TQqzx8U7jZ-16" value="Editorial User" style="shape=umlBoundary;whiteSpace=wrap;html=1;" vertex="1" parent="1">
          <mxGeometry x="240" y="595" width="100" height="80" as="geometry" />
        </mxCell>
        <mxCell id="4k3_10itk6TQqzx8U7jZ-17" value="Hydra" style="html=1;dropTarget=0;" vertex="1" parent="1">
          <mxGeometry x="740" y="200" width="180" height="90" as="geometry" />
        </mxCell>
        <mxCell id="4k3_10itk6TQqzx8U7jZ-18" value="" style="shape=module;jettyWidth=8;jettyHeight=4;" vertex="1" parent="4k3_10itk6TQqzx8U7jZ-17">
          <mxGeometry x="1" width="20" height="20" relative="1" as="geometry">
            <mxPoint x="-27" y="7" as="offset" />
          </mxGeometry>
        </mxCell>
        <mxCell id="4k3_10itk6TQqzx8U7jZ-19" value="End User" style="shape=umlBoundary;whiteSpace=wrap;html=1;" vertex="1" parent="1">
          <mxGeometry x="520" y="150" width="100" height="80" as="geometry" />
        </mxCell>
      </root>
    </mxGraphModel>
  </diagram>
</mxfile>
